<svg width="101" height="79" viewBox="0 0 101 79" fill="none" xmlns="http://www.w3.org/2000/svg">
<path d="M100.193 32.2934C100.193 28.4743 97.0901 25.3712 93.271 25.3712H87.2737C87.1245 25.043 86.9753 24.7148 86.7665 24.4164L73.1011 3.1425C72.1164 1.6208 70.5947 0.546666 68.8343 0.158783C67.0441 -0.2291 65.2539 0.0991107 63.7024 1.08374C60.5396 3.11266 59.6445 7.3197 61.6734 10.4824L71.2213 25.3414H29.0017L38.5496 10.4824C39.2657 9.37847 39.6238 8.12531 39.6238 6.81247C39.6238 4.48517 38.4601 2.3369 36.4909 1.08374C34.9692 0.0991107 33.1491 -0.2291 31.3589 0.158783C29.5985 0.546666 28.0768 1.59097 27.0921 3.1425L13.4267 24.4164C13.2179 24.7148 13.0687 25.043 12.9195 25.3712H6.92222C3.10307 25.3712 0 28.4743 0 32.2934V32.741C0 36.5601 3.10307 39.6632 6.92222 39.6632H7.57864L18.9466 76.7508C19.245 77.7056 20.1103 78.3322 21.0949 78.3322H79.0387C80.0233 78.3322 80.8886 77.6757 81.1869 76.7508L92.5549 39.6632H93.2113C97.0305 39.6632 100.134 36.5601 100.134 32.741V32.2934H100.193ZM65.4031 8.09547C64.7168 7.02133 65.0152 5.58915 66.0893 4.87306C66.6264 4.54485 67.2231 4.4255 67.8497 4.54485C68.4465 4.66419 68.9835 5.02224 69.3117 5.55931L82.0224 25.3414H76.5025L65.4031 8.09547ZM30.8815 5.55931C31.2097 5.02224 31.7467 4.66419 32.3435 4.54485C32.9402 4.4255 33.5668 4.51501 34.1039 4.87306C34.7603 5.29078 35.178 6.03671 35.178 6.84231C35.178 7.28987 35.0587 7.70759 34.82 8.09547L23.7206 25.3712H18.2007L30.8815 5.55931ZM77.4274 73.8566H22.7658L12.2631 39.6632H87.9003L77.4274 73.8566ZM95.7176 32.741C95.7176 34.0836 94.6137 35.1876 93.271 35.1876H90.9735H90.9437H9.27936H9.24952H6.95206C5.60939 35.1876 4.50541 34.0836 4.50541 32.741V32.2934C4.50541 30.9507 5.60939 29.8468 6.95206 29.8468H14.5904H14.6202H24.8842H75.2493H85.5133C85.5133 29.8468 85.5133 29.8468 85.5432 29.8468H93.2113C94.554 29.8468 95.658 30.9507 95.658 32.2934V32.741H95.7176Z" fill="white"/>
<path d="M36.0433 65.0845C37.2666 65.0845 38.2811 64.07 38.2811 62.8467V50.6731C38.2811 49.4498 37.2666 48.4353 36.0433 48.4353C34.82 48.4353 33.8055 49.4498 33.8055 50.6731V62.8467C33.8055 64.0998 34.82 65.0845 36.0433 65.0845Z" fill="white"/>
<path d="M50.0966 65.0845C51.3199 65.0845 52.3344 64.07 52.3344 62.8467V50.6731C52.3344 49.4498 51.3199 48.4353 50.0966 48.4353C48.8733 48.4353 47.8588 49.4498 47.8588 50.6731V62.8467C47.8588 64.0998 48.8733 65.0845 50.0966 65.0845Z" fill="white"/>
<path d="M64.1499 65.0845C65.3732 65.0845 66.3877 64.07 66.3877 62.8467V50.6731C66.3877 49.4498 65.3732 48.4353 64.1499 48.4353C62.9266 48.4353 61.9121 49.4498 61.9121 50.6731V62.8467C61.9121 64.0998 62.8967 65.0845 64.1499 65.0845Z" fill="white"/>
</svg>
