<?xml version="1.0" encoding="UTF-8"?>
<!DOCTYPE svg PUBLIC "-//W3C//DTD SVG 1.1//EN" "http://www.w3.org/Graphics/SVG/1.1/DTD/svg11.dtd">
<!-- Creator: CorelDRAW X6 -->
<svg xmlns="http://www.w3.org/2000/svg" xml:space="preserve" width="13.2292mm" height="13.2292mm" version="1.1" style="shape-rendering:geometricPrecision; text-rendering:geometricPrecision; image-rendering:optimizeQuality; fill-rule:evenodd; clip-rule:evenodd"
viewBox="0 0 1323 1323"
 xmlns:xlink="http://www.w3.org/1999/xlink"
 enable-background="new 0 0 24 24">
 <defs>
  <style type="text/css">
   <![CDATA[
    .str0 {stroke:#FEFEFE;stroke-width:50}
    .fil0 {fill:none}
   ]]>
  </style>
 </defs>
 <g id="Warstwa_x0020_1">
  <metadata id="CorelCorpID_0Corel-Layer"/>
  <rect class="fil0" width="1323" height="1323"/>
  <g id="_884660688">
   <g>
    <path class="fil0 str0" d="M688 368l0 400c0,44 -36,80 -80,80l0 0c-44,0 -80,-36 -80,-80l0 0c0,-44 36,-80 80,-80l0 0 0 -107 0 0c-103,0 -186,83 -186,186l0 0c0,103 83,186 186,186l0 0c103,0 186,-83 186,-186l0 -186 6 3c31,16 66,24 101,24l0 0 0 -107 -3 -1c-61,-15 -103,-70 -103,-132l0 0 -107 0z"/>
   </g>
  </g>
 </g>
</svg>
